<svg id="&#x421;&#x43B;&#x43E;&#x439;_1" enable-background="new 0 0 100 100" viewBox="0 0 100 100" xmlns="http://www.w3.org/2000/svg"><g><path d="m100 5.677-5.59-5.591-93.748 93.747-.086-.086-.576.577 5.677 5.676 20.383-20.383 29.69 20.383v-50.073l11.114-11.114c2.881 2.856 4.668 6.81 4.668 11.188 0 5.841-3.181 10.928-7.897 13.657l5.046 8.739c7.737-4.474 12.955-12.816 12.955-22.397 0-7.169-2.923-13.643-7.635-18.324l5.643-5.643c6.15 6.126 9.958 14.599 9.958 23.967 0 12.529-6.809 23.462-16.927 29.313l5.199 9.004c13.222-7.652 22.126-21.94 22.126-38.317 0-12.239-4.975-23.308-13.007-31.316z"/><path d="m55.75 27.432v-27.432l-39.085 26.833h-.001-16.664v46.333h10.016z"/></g></svg>