<svg id="Livello_1" enable-background="new 0 0 300 300" height="512" viewBox="0 0 300 300" width="512" xmlns="http://www.w3.org/2000/svg"><g><g><g><path d="m283.7 150.5c0 31.6-11.2 62.2-31.7 86.1-1.5 1.7-3.5 2.7-5.7 2.8-2.3.1-4.4-.7-6-2.3l-14.2-14.2c-2.9-2.9-3.2-7.5-.5-10.7 14.5-17.5 22.1-38.8 22.1-61.6s-7.7-44.1-22.1-61.6c-2.6-3.2-2.4-7.8.5-10.7l14.2-14.3c1.6-1.6 3.7-2.4 6-2.3 2.2.1 4.3 1.1 5.7 2.8 20.4 23.8 31.7 54.4 31.7 86z"/></g></g><g><g><path d="m227.5 150.5c0 16.6-5.2 32.4-15.1 45.6-1.4 1.9-3.6 3.1-5.9 3.3s-4.6-.7-6.2-2.3l-14.3-14.4c-2.7-2.7-3.1-6.8-1.1-10 4.3-6.6 6.6-14.3 6.6-22.3s-2.3-15.7-6.6-22.3c-2-3.1-1.6-7.3 1.1-10l14.4-14.4c1.6-1.6 3.9-2.5 6.2-2.3s4.5 1.4 5.9 3.3c9.8 13.4 15 29.2 15 45.8z"/></g></g><path d="m84.1 83.5h-52.8c-8.3 0-15 6.7-15 15v102.9c0 8.3 6.7 15 15 15h52.8l42.2 42.2c9.4 9.4 25.6 2.8 25.6-10.6v-196.2c0-13.4-16.2-20.1-25.6-10.6z"/></g></svg>